<svg xmlns="http://www.w3.org/2000/svg" version="1.1" xmlns:xlink="http://www.w3.org/1999/xlink" xmlns:svgjs="http://svgjs.dev/svgjs" width="1000" height="1000" viewBox="0 0 1000 1000"><rect width="1000" height="1000" fill="#ffffff"></rect><g transform="matrix(0.7,0,0,0.7,149.62268932797582,217.07927195355825)"><svg viewBox="0 0 305 247" data-background-color="#ffffff" preserveAspectRatio="xMidYMid meet" height="809" width="1000" xmlns="http://www.w3.org/2000/svg" xmlns:xlink="http://www.w3.org/1999/xlink"><g id="tight-bounds" transform="matrix(1,0,0,1,0.1643996499533955,-0.09999969534013076)"><svg viewBox="0 0 304.6712007000932 247.2" height="247.2" width="304.6712007000932"><g><svg viewBox="0 0 397.4975999999999 322.51622895176354" height="247.2" width="304.6712007000932"><g><rect width="397.4975999999999" height="9.878246124848797" x="0" y="177.24074145337838" fill="#000000" opacity="1" stroke-width="0" stroke="transparent" fill-opacity="1" class="rect-o-0" data-fill-palette-color="secondary" rx="1%" id="o-0" data-palette-color="#ee3e38"></rect></g><g transform="matrix(1,0,0,1,0.9887999999999693,212.97827062756957)"><svg viewBox="0 0 395.52 109.53795832419391" height="109.53795832419391" width="395.52"><g><svg viewBox="0 0 395.52 109.53795832419391" height="109.53795832419391" width="395.52"><g><svg viewBox="0 0 395.52 109.53795832419391" height="109.53795832419391" width="395.52"><g transform="matrix(1,0,0,1,0,0)"><svg width="395.52" viewBox="0.49000000953674316 -51.883636474609375 222.58999633789062 61.65363693237305" height="109.53795832419391" data-palette-color="#ee3e38"><path d="M53.32-28.66L53.32-28.66Q53.32-27.88 53.05-27.05 52.78-26.22 52.39-25.54L52.39-25.54Q51.76-25.44 51.25-25.1 50.73-24.76 50.44-24.66L50.44-24.66Q49.8-24.56 48.95-24.58 48.1-24.61 47.41-24.56L47.41-24.56Q46.09-24.46 44.8-24.27 43.51-24.07 42.24-23.78L42.24-23.78Q42.14-23.78 42.04-23.75 41.94-23.73 41.94-23.63L41.94-23.63Q41.94-23.54 41.99-23.44 42.04-23.34 42.04-23.24L42.04-23.24Q42.04-23.1 41.75-23.1L41.75-23.1Q41.21-23.1 41.02-23.44L41.02-23.44Q39.45-23.05 37.89-22.63 36.33-22.22 34.77-21.83L34.77-21.83Q33.98-21.68 33.23-21.53 32.47-21.39 31.69-21.14L31.69-21.14Q31.3-21.04 30.91-20.8L30.91-20.8 30.13-20.31Q29.88-20.36 29.69-20.39 29.49-20.41 29.3-20.41L29.3-20.41Q28.47-20.41 27.54-20.09 26.61-19.78 25.93-19.24L25.93-19.24 25.59-19.24Q25.1-19.24 24.9-19.38L24.9-19.38Q24.46-19.43 24.37-19.12 24.27-18.8 24.02-18.55L24.02-18.55Q22.36-18.41 20.75-17.97 19.14-17.53 17.58-17.02 16.02-16.5 14.43-15.99 12.84-15.48 11.23-15.19L11.23-15.19Q11.04-14.21 11.04-12.94L11.04-12.94Q11.04-11.96 11.21-10.69 11.38-9.42 11.96-8.54L11.96-8.54 11.96-8.45Q11.96-8.2 11.77-8.11 11.57-8.01 11.57-7.76L11.57-7.76Q11.57-6.49 11.84-5.37 12.11-4.25 12.4-3.17 12.7-2.1 12.96-1.03 13.23 0.05 13.23 1.17L13.23 1.17Q13.23 1.46 13.21 1.73 13.18 2 13.13 2.29L13.13 2.29Q13.28 2.73 13.62 3.03 13.96 3.32 14.21 3.71L14.21 3.71Q14.26 3.96 14.26 4.15L14.26 4.15 14.26 4.64Q14.26 5.47 14.06 6.1 13.87 6.74 13.57 7.3 13.28 7.86 12.94 8.42 12.6 8.98 12.3 9.67L12.3 9.67Q11.82 9.77 11.52 9.77L11.52 9.77Q10.79 9.77 10.33 9.38 9.86 8.98 9.52 8.42 9.18 7.86 8.86 7.28 8.54 6.69 8.11 6.3L8.11 6.3Q8.15 6.05 8.18 5.86 8.2 5.66 8.2 5.42L8.2 5.42Q8.2 4.44 7.89 3.52 7.57 2.59 7.18 1.76L7.18 1.76Q7.13 0.1 6.84-1.51 6.54-3.13 6.01-4.69L6.01-4.69Q6.1-5.27 6.15-5.83 6.2-6.4 6.2-6.93L6.2-6.93Q6.2-8.35 6.05-9.77 5.91-11.18 6.01-12.6L6.01-12.6Q5.86-12.84 5.71-13.01 5.57-13.18 5.47-13.43L5.47-13.43 5.27-13.43Q4.54-13.43 3.86-13.31 3.17-13.18 2.49-13.18L2.49-13.18Q2.25-13.18 2.05-13.21 1.86-13.23 1.61-13.28L1.61-13.28Q1.07-13.82 0.78-14.5 0.49-15.19 0.49-15.92L0.49-15.92Q0.49-16.99 1.07-17.87L1.07-17.87Q2.29-18.16 3.49-18.58 4.69-18.99 5.81-19.58L5.81-19.58Q5.96-20.31 5.98-21.04 6.01-21.78 6.49-22.41L6.49-22.41Q6.35-22.8 6.03-23.12 5.71-23.44 5.71-23.88L5.71-23.88Q5.71-24.12 5.81-24.51L5.81-24.51Q6.3-25.05 6.49-25.88 6.69-26.71 6.84-27.64 6.98-28.56 7.15-29.49 7.32-30.42 7.76-31.15L7.76-31.15Q7.67-31.54 7.62-32.01 7.57-32.47 7.57-32.86L7.57-32.86Q7.57-33.45 7.64-34.06 7.71-34.67 7.91-35.21L7.91-35.21Q7.37-35.84 7.03-36.69 6.69-37.55 6.69-38.38L6.69-38.38Q6.69-39.99 8.25-40.43L8.25-40.43Q8.2-40.63 8.18-40.77 8.15-40.92 8.15-41.06L8.15-41.06Q8.15-41.5 8.4-41.89 8.64-42.29 8.79-42.68L8.79-42.68Q8.54-43.31 8.54-43.75L8.54-43.75Q8.54-44.14 8.69-44.46 8.84-44.78 8.94-45.17L8.94-45.17Q9.08-45.65 9.16-46.04 9.23-46.44 9.42-46.73 9.62-47.02 9.94-47.17 10.25-47.31 10.94-47.31L10.94-47.31Q12.01-47.31 13.01-46.66 14.01-46 14.55-45.17L14.55-45.17Q15.09-45.21 15.5-45.39 15.92-45.56 16.28-45.7 16.65-45.85 17.07-45.97 17.48-46.09 18.07-46.04L18.07-46.04Q18.21-46.39 18.58-46.51 18.95-46.63 19.34-46.7 19.73-46.78 20.07-46.92 20.41-47.07 20.51-47.46L20.51-47.46Q20.7-47.31 20.95-47.31L20.95-47.31Q21.19-47.31 21.44-47.39 21.68-47.46 21.97-47.46L21.97-47.46Q22.27-47.46 22.46-47.27L22.46-47.27Q23.73-47.95 25.17-48.27 26.61-48.58 28.03-48.63L28.03-48.63Q31.4-50.49 35.13-51.17 38.87-51.86 42.63-51.86L42.63-51.86Q43.16-51.86 43.68-51.88 44.19-51.9 44.68-51.81L44.68-51.81Q45.21-51.71 45.87-51.46 46.53-51.22 47.19-50.88 47.85-50.54 48.44-50.12 49.02-49.71 49.41-49.37L49.41-49.37Q49.8-48.49 49.8-47.66L49.8-47.66Q49.8-47.27 49.76-46.9 49.71-46.53 49.71-46.14L49.71-46.14Q49.71-45.56 49.95-44.82L49.95-44.82Q49.8-44.87 49.46-44.87L49.46-44.87Q49.02-44.87 48.73-44.68 48.44-44.48 48.19-44.24 47.95-43.99 47.73-43.8 47.51-43.6 47.31-43.6L47.31-43.6Q46.92-43.6 46.66-43.75 46.39-43.9 46.12-44.07 45.85-44.24 45.56-44.36 45.26-44.48 44.87-44.43L44.87-44.43 44.87-44.63Q44.87-45.17 44.53-45.34 44.19-45.51 43.99-45.85L43.99-45.85Q43.26-45.9 42.55-46.04 41.85-46.19 41.11-46.19L41.11-46.19Q40.14-46.19 39.6-45.51L39.6-45.51Q39.36-45.61 39.18-45.75 39.01-45.9 38.72-45.85L38.72-45.85 38.57-45.85Q35.94-45.85 33.4-45.29 30.86-44.73 28.37-43.92 25.88-43.12 23.39-42.19 20.9-41.26 18.41-40.58L18.41-40.58Q17.82-39.79 17.19-39.43 16.55-39.06 15.94-38.82 15.33-38.57 14.75-38.33 14.16-38.09 13.75-37.55 13.33-37.01 13.11-36.06 12.89-35.11 12.99-33.45L12.99-33.45Q12.74-33.15 12.7-32.81 12.65-32.47 12.6-32.15 12.55-31.84 12.45-31.54 12.35-31.25 12.11-31.01L12.11-31.01Q12.21-30.52 12.26-30.03 12.3-29.54 12.3-29.05L12.3-29.05Q12.3-27 11.62-25.05L11.62-25.05Q11.87-24.66 11.87-24.17L11.87-24.17Q11.87-23.63 11.72-23.19 11.57-22.75 11.57-22.22L11.57-22.22Q11.57-21.68 11.77-21.34L11.77-21.34Q12.06-21.34 12.11-21.14L12.11-21.14 12.4-21.14Q13.28-21.14 13.92-21.58 14.55-22.02 15.28-22.02L15.28-22.02Q15.43-22.02 15.63-21.92 15.82-21.83 15.97-21.83L15.97-21.83Q16.31-21.83 16.26-22.07 16.21-22.31 16.5-22.41L16.5-22.41 18.26-22.71Q19.92-23 21.41-23.41 22.9-23.83 24.37-24.66L24.37-24.66Q24.71-24.51 25.15-24.51L25.15-24.51Q25.54-24.51 25.98-24.63 26.42-24.76 26.81-24.76L26.81-24.76Q27.15-24.76 27.34-24.66L27.34-24.66Q27.64-24.85 28.08-24.98 28.52-25.1 28.56-25.54L28.56-25.54 28.66-25.54Q28.86-25.54 28.96-25.44 29.05-25.34 29.25-25.34L29.25-25.34 29.44-25.34Q30.47-25.83 31.3-26.07L31.3-26.07Q32.67-26.42 34.23-26.68 35.79-26.95 37.01-27.64L37.01-27.64Q38.43-27.64 39.77-28.1 41.11-28.56 42.48-28.56L42.48-28.56Q43.12-28.56 43.65-28.37L43.65-28.37Q44.14-28.71 44.8-28.86 45.46-29 45.9-29.39L45.9-29.39Q46.19-29.35 46.51-29.32 46.83-29.3 47.17-29.3L47.17-29.3Q48.63-29.3 49.98-29.71 51.32-30.13 52.73-30.32L52.73-30.32Q53.08-29.93 53.2-29.52 53.32-29.1 53.32-28.66ZM55.47-6.69L55.47-6.69Q55.22-6.3 54.88-5.98 54.54-5.66 54.25-5.32L54.25-5.32Q53.9-5.18 53.49-5.18 53.07-5.18 52.71-5.2 52.34-5.22 52.02-5.2 51.71-5.18 51.51-4.98L51.51-4.98Q51.12-5.08 50.93-5.35 50.73-5.62 50.24-5.66L50.24-5.66Q50.05-5.71 49.85-5.66L49.85-5.66Q49.12-6.49 48.51-7.42 47.9-8.35 47.36-9.18L47.36-9.18Q47.31-10.99 47.07-12.84L47.07-12.84Q47.02-13.28 46.92-13.72 46.82-14.16 46.77-14.55L46.77-14.55Q46.77-15.04 46.85-15.5 46.92-15.97 46.97-16.36L46.97-16.36Q47.17-17.77 47.41-19.14 47.65-20.51 47.85-21.92L47.85-21.92Q48.04-23.19 48.04-24.58 48.04-25.98 47.6-27.2L47.6-27.2 47.56-27.44Q47.65-27.83 47.78-28.1 47.9-28.37 47.95-28.71L47.95-28.71Q48.04-29.25 47.7-29.49L47.7-29.49Q47.85-29.88 48.19-30 48.53-30.13 48.58-30.57L48.58-30.57Q48.63-30.76 48.58-30.96L48.58-30.96Q48.97-31.1 49.39-31.23 49.8-31.35 50.19-31.25L50.19-31.25Q50.83-31.15 51.32-30.83 51.8-30.52 52.24-30.13L52.24-30.13Q53.02-27.78 52.88-25.17 52.73-22.56 52.39-19.92 52.05-17.29 51.95-14.77 51.85-12.26 52.73-10.11L52.73-10.11 52.83-10.06Q53.07-10.01 53.22-10.23 53.37-10.45 53.61-10.4L53.61-10.4Q53.81-10.3 53.85-10.3L53.85-10.3Q54.05-9.33 54.49-8.45 54.93-7.57 55.47-6.69ZM92.23-32.08L92.23-32.08Q92.13-31.49 91.96-31.08 91.79-30.66 91.89-29.98L91.89-29.98Q91.4-29.93 91.13-29.66 90.86-29.39 90.69-29.05 90.52-28.71 90.35-28.34 90.18-27.98 89.94-27.69L89.94-27.69Q90.33-25.93 90.38-24.12 90.42-22.31 90.62-20.56L90.62-20.56Q90.86-18.31 91.38-16.14 91.89-13.96 91.89-11.72L91.89-11.72Q91.89-11.04 91.87-10.45 91.84-9.86 91.84-9.23L91.84-9.23Q91.84-8.84 91.87-8.42 91.89-8.01 91.89-7.62L91.89-7.62Q91.89-6.2 91.52-4.79 91.16-3.37 90.96-1.95L90.96-1.95Q90.38-1.42 89.96-0.78 89.55-0.15 89.11 0.39 88.67 0.93 88.08 1.34 87.5 1.76 86.62 1.9L86.62 1.9Q86.47 2.39 86.05 2.64 85.64 2.88 85.35 3.32L85.35 3.32 85.25 3.32Q84.03 3.32 83.15 2.98 82.27 2.64 81.51 2.2 80.76 1.76 79.98 1.27 79.19 0.78 78.17 0.49L78.17 0.49Q76.8-0.63 75.68-1.98 74.56-3.32 73.14-4.39L73.14-4.39Q72.8-5.37 72.24-6.01 71.67-6.64 71.14-7.47L71.14-7.47Q70.89-7.81 70.77-8.11 70.65-8.4 70.45-8.79L70.45-8.79Q70.31-9.18 69.99-9.33 69.67-9.47 69.43-9.67L69.43-9.67Q69.04-11.18 68.31-12.45 67.57-13.72 66.6-14.89L66.6-14.89Q66.3-14.36 66.13-13.75 65.96-13.13 65.82-12.52 65.67-11.91 65.45-11.3 65.23-10.69 64.89-10.21L64.89-10.21 64.89-10.06Q64.89-9.81 65.08-9.77 65.28-9.72 65.28-9.47L65.28-9.47Q65.28-9.42 65.25-9.38 65.23-9.33 65.23-9.28L65.23-9.28Q64.99-9.08 64.86-8.79 64.74-8.5 64.35-8.45L64.35-8.45Q64.4-8.2 64.4-7.96L64.4-7.96 64.4-7.52Q64.4-6.1 64.08-4.69 63.76-3.27 63.76-1.81L63.76-1.81 63.76-1.17Q63.76-0.83 63.81-0.54L63.81-0.54Q63.91-0.24 64.11 0.05 64.3 0.34 64.3 0.59L64.3 0.59Q64.3 0.93 64.01 1.22L64.01 1.22Q64.35 1.46 64.79 1.76 65.23 2.05 65.6 2.42 65.96 2.78 66.21 3.2 66.45 3.61 66.45 4.1L66.45 4.1Q66.45 4.93 65.91 5.27 65.38 5.62 64.62 5.81 63.86 6.01 63.06 6.18 62.25 6.35 61.71 6.79L61.71 6.79 61.57 6.79Q60.98 6.79 60.69 6.45 60.4 6.1 59.81 6.1L59.81 6.1Q58.88 4.59 58.54 2.71 58.2 0.83 58.2-0.88L58.2-0.88Q58.2-2.98 58.56-5.08 58.93-7.18 59.44-9.23 59.96-11.28 60.57-13.31 61.18-15.33 61.71-17.38L61.71-17.38 61.76-17.53Q61.76-17.77 61.64-17.87 61.52-17.97 61.52-18.16L61.52-18.16Q61.52-18.26 61.57-18.26L61.57-18.26Q61.71-18.75 61.88-19.19 62.06-19.63 62.15-20.17L62.15-20.17Q62.45-21.53 62.57-22.97 62.69-24.41 62.71-25.83 62.74-27.25 62.81-28.69 62.89-30.13 63.13-31.54L63.13-31.54Q63.52-31.93 63.86-32.37 64.2-32.81 64.74-33.15L64.74-33.15Q65.72-33.11 66.69-32.86 67.67-32.62 68.55-32.08L68.55-32.08Q69.14-29.98 69.36-27.88 69.58-25.78 70.11-23.68L70.11-23.68 70.11-23.54Q70.11-23.29 70.38-23.32 70.65-23.34 70.8-23.14L70.8-23.14Q70.7-23 70.67-22.8 70.65-22.61 70.65-22.41L70.65-22.41 70.65-21.58Q70.75-21.19 70.89-20.75 71.04-20.31 71.53-20.21L71.53-20.21Q71.77-18.65 72.26-17.33 72.75-16.02 73.38-14.79 74.02-13.57 74.75-12.38 75.48-11.18 76.26-9.86L76.26-9.86Q77.49-8.94 78.36-7.74 79.24-6.54 80.15-5.44 81.05-4.35 82.2-3.52 83.34-2.69 85.2-2.49L85.2-2.49Q85.44-2.69 85.54-3.03L85.54-3.03 85.79-3.71Q85.93-4.05 86.1-4.32 86.27-4.59 86.62-4.74L86.62-4.74Q86.71-6.1 86.84-7.52 86.96-8.94 87.45-10.21L87.45-10.21Q87.2-10.64 87.2-11.28L87.2-11.28Q87.2-11.77 87.28-12.21 87.35-12.65 87.35-13.09L87.35-13.09Q87.35-14.01 86.96-14.6L86.96-14.6Q86.96-14.94 87.01-15.31 87.06-15.67 87.3-16.02L87.3-16.02Q86.91-16.99 86.69-18.07 86.47-19.14 86.47-20.26L86.47-20.26Q86.47-20.9 86.62-21.58L86.62-21.58Q86.32-22.31 86.23-23.29L86.23-23.29 86.03-25.29Q85.93-26.32 85.74-27.2 85.54-28.08 85-28.61L85-28.61Q85.3-29.05 85.3-29.64L85.3-29.64Q85.3-30.62 85-31.49 84.71-32.37 84.71-33.35L84.71-33.35Q84.71-34.03 85-34.72L85-34.72Q86.08-34.67 87.13-34.5 88.18-34.33 89.2-34.33L89.2-34.33Q89.5-33.94 89.89-33.69 90.28-33.45 90.72-33.23 91.16-33.01 91.57-32.76 91.99-32.52 92.23-32.08ZM129.92-24.07L129.92-24.07Q129.92-23.58 129.58-23.44 129.24-23.29 129.24-22.85L129.24-22.85Q129.24-22.71 129.34-22.61 129.44-22.51 129.44-22.31L129.44-22.31 129.44-22.12Q128.85-19.29 127.75-17.19 126.65-15.09 125.19-13.33 123.72-11.57 121.89-10.01 120.06-8.45 117.96-6.74L117.96-6.74Q117.38-6.25 116.76-5.76 116.15-5.27 115.62-4.74L115.62-4.74 114.54-3.71Q114.49-3.66 114.01-3.49 113.52-3.32 113.42-3.27L113.42-3.27Q112.74-2.98 111.98-2.59 111.22-2.2 110.69-1.61L110.69-1.61Q109.71-1.61 109.03-1.32 108.34-1.03 107.51-0.54L107.51-0.54Q107.27-0.54 107.1-0.63 106.93-0.73 106.73-0.83 106.54-0.93 106.32-0.95 106.1-0.98 105.75-0.88L105.75-0.88Q105.17-1.86 104.48-2.54 103.8-3.22 102.63-3.37L102.63-3.37Q102.48-4.2 101.95-4.66 101.41-5.13 100.87-5.66L100.87-5.66Q100.77-5.96 100.72-6.35 100.68-6.74 100.53-7.08 100.38-7.42 100.14-7.67 99.89-7.91 99.46-7.91L99.46-7.91Q99.41-8.2 99.7-8.2 99.99-8.2 99.99-8.45L99.99-8.45Q99.99-8.74 99.89-9.03 99.8-9.33 99.8-9.67L99.8-9.67Q99.8-9.91 99.85-10.11 99.89-10.3 99.99-10.55L99.99-10.55Q99.85-11.87 99.85-13.23L99.85-13.23Q99.85-15.87 100.21-18.43 100.58-21 100.58-23.63L100.58-23.63Q100.58-24.8 100.46-25.98 100.33-27.15 99.99-28.27L99.99-28.27Q98.87-28.03 97.75-27.71 96.62-27.39 95.65-26.86L95.65-26.86Q95.11-27.2 94.5-27.27 93.89-27.34 93.3-27.54L93.3-27.54Q92.96-28.22 92.96-28.96L92.96-28.96Q92.96-29.64 93.21-30.27L93.21-30.27 93.69-31.54Q94.87-31.79 96.01-32.28 97.16-32.76 98.33-33.15L98.33-33.15Q98.72-33.25 99.33-33.4 99.94-33.54 100.19-33.64L100.19-33.64Q100.53-33.79 100.65-34.2 100.77-34.62 101.02-34.91L101.02-34.91 101.85-34.91Q102.14-34.91 102.48-34.89 102.82-34.86 103.12-34.72L103.12-34.72Q104.88-35.16 106.63-35.28 108.39-35.4 110.25-35.64L110.25-35.64Q110.44-35.64 110.83-35.69L110.83-35.69 111.66-35.84Q112.1-35.94 112.47-36.01 112.83-36.08 112.98-36.08L112.98-36.08Q113.13-36.08 113.13-35.94L113.13-35.94 113.96-35.94Q116.06-35.94 118.06-35.4L118.06-35.4 122.06-34.33Q122.89-33.64 123.72-33.01 124.55-32.37 125.58-31.88L125.58-31.88Q125.82-31.1 126.34-30.64 126.85-30.18 127.48-29.64L127.48-29.64Q127.73-29 128.14-28.3 128.56-27.59 128.95-26.86 129.34-26.12 129.63-25.42 129.92-24.71 129.92-24.07ZM125.38-23.34L125.38-23.34Q124.85-24.46 124.36-25.68 123.87-26.9 123.14-27.88L123.14-27.88Q122.26-28.13 121.35-28.49 120.45-28.86 120.11-29.79L120.11-29.79Q120.01-29.74 119.77-29.74L119.77-29.74Q119.33-29.74 118.99-30.08 118.64-30.42 118.21-30.52L118.21-30.52Q117.81-30.57 117.16-30.66 116.5-30.76 115.76-30.81 115.03-30.86 114.32-30.91 113.62-30.96 113.22-30.96L113.22-30.96Q112.83-30.96 112.42-30.93 112-30.91 111.56-30.86L111.56-30.86Q111.17-30.86 111.08-30.74 110.98-30.62 110.69-30.52L110.69-30.52Q110.44-30.62 110.15-30.62L110.15-30.62 109.56-30.62Q108.54-30.62 107.54-30.3 106.54-29.98 105.56-29.44L105.56-29.44 105.56-29.25Q105.56-28.86 105.9-28.81 106.24-28.76 106.29-28.42L106.29-28.42Q106.05-28.42 105.9-28.39 105.75-28.37 105.75-28.03L105.75-28.03Q105.75-27.54 105.88-26.95 106-26.37 106-25.78L106-25.78Q106-25.34 105.9-24.76 105.8-24.17 105.41-23.83L105.41-23.83Q105.9-23.39 105.9-22.66L105.9-22.66Q105.9-22.17 105.71-21.63 105.51-21.09 105.22-20.7L105.22-20.7Q105.12-18.65 104.83-16.55 104.53-14.45 104.53-12.4L104.53-12.4Q104.53-11.38 104.66-10.4 104.78-9.42 105.07-8.45L105.07-8.45Q105.61-7.91 106.22-7.62 106.83-7.32 107.51-7.03L107.51-7.03 107.51-6.88Q107.51-6.74 107.32-6.59 107.12-6.45 107.12-6.2L107.12-6.2Q107.12-6.01 107.32-6.01L107.32-6.01Q109.37-6.59 111.17-7.42 112.98-8.25 114.54-9.67L114.54-9.67Q114.69-9.81 114.84-9.81L114.84-9.81Q114.93-9.81 115.1-9.77 115.28-9.72 115.42-9.67L115.42-9.67 115.37-9.86Q115.37-10.16 115.54-10.4 115.72-10.64 115.96-10.84L115.96-10.84 116.45-11.28Q116.69-11.52 116.84-11.77L116.84-11.77Q117.23-11.87 117.4-12.16 117.57-12.45 118.01-12.45L118.01-12.45Q118.11-12.99 118.55-13.26 118.99-13.53 119.08-14.06L119.08-14.06Q120.06-14.6 120.82-15.38 121.57-16.16 122.23-17.04 122.89-17.92 123.48-18.87 124.06-19.82 124.7-20.7L124.7-20.7 124.7-20.9Q124.7-21.68 124.97-22.17 125.24-22.66 125.38-23.34ZM162.98-31.05L162.98-31.05 162.98-30.86Q162.64-30.76 162.64-30.37L162.64-30.37Q162.1-30.13 161.51-30 160.93-29.88 160.39-29.64L160.39-29.64Q159.85-29.69 159.29-29.71 158.73-29.74 158.19-29.74L158.19-29.74Q156.73-29.74 155.26-29.64 153.8-29.54 152.33-29.64L152.33-29.64Q151.65-29.25 150.84-29.03 150.04-28.81 149.31-28.81L149.31-28.81Q148.72-28.81 148.28-28.96L148.28-28.96Q147.11-28.37 145.72-27.98 144.33-27.59 142.91-27.22 141.49-26.86 140.2-26.39 138.91-25.93 137.93-25.1L137.93-25.1Q137.83-24.41 137.78-23.75 137.73-23.1 137.73-22.46L137.73-22.46Q137.73-21.78 137.81-21.19 137.88-20.61 138.12-20.02L138.12-20.02Q138.37-19.92 138.69-19.87 139-19.82 139.25-19.82L139.25-19.82Q139.49-19.82 139.74-19.9 139.98-19.97 140.08-20.21L140.08-20.21Q140.81-20.31 141.54-20.29 142.28-20.26 143.01-20.26L143.01-20.26Q143.74-20.26 144.45-20.31 145.16-20.36 145.84-20.56L145.84-20.56Q146.62-20.75 147.38-20.8 148.13-20.85 148.87-20.9 149.6-20.95 150.38-21.07 151.16-21.19 151.99-21.58L151.99-21.58Q152.63-21.34 153.29-21.34 153.95-21.34 154.58-21.24L154.58-21.24Q154.92-21 155.14-20.7 155.36-20.41 155.36-20.02L155.36-20.02Q155.36-19.34 154.87-18.65 154.38-17.97 154.09-17.38L154.09-17.38 153.55-17.38Q152.38-17.38 151.28-17.07 150.19-16.75 149.09-16.33 147.99-15.92 146.89-15.6 145.79-15.28 144.62-15.28L144.62-15.28Q144.42-15.28 144.4-15.06 144.37-14.84 144.28-14.75L144.28-14.75Q144.03-14.79 143.54-14.79L143.54-14.79Q142.42-14.79 141.4-14.55 140.37-14.31 139.3-14.31L139.3-14.31Q139-14.31 138.71-14.33 138.42-14.36 138.12-14.4L138.12-14.4Q137.88-14.01 137.49-13.89 137.1-13.77 136.76-13.48L136.76-13.48Q136.61-13.04 136.59-12.4 136.56-11.77 136.54-11.11 136.51-10.45 136.42-9.86 136.32-9.28 136.03-8.94L136.03-8.94Q136.07-8.69 136.42-8.76 136.76-8.84 136.76-8.45L136.76-8.45Q136.76-8.01 136.66-7.52 136.56-7.03 136.56-6.54L136.56-6.54Q136.56-5.62 136.78-4.52 137-3.42 137.47-2.49 137.93-1.56 138.71-0.95 139.49-0.34 140.66-0.34L140.66-0.34Q141.45-0.34 142.13-0.63 142.81-0.93 143.25-1.61L143.25-1.61 143.5-1.66Q143.69-1.66 143.86-1.61 144.03-1.56 144.23-1.56L144.23-1.56Q144.52-1.56 144.99-1.93 145.45-2.29 146.01-2.78 146.57-3.27 147.16-3.74 147.74-4.2 148.28-4.39L148.28-4.39Q148.62-5.08 148.94-5.76 149.26-6.45 149.89-6.84L149.89-6.84 149.89-8.25Q150.38-8.79 150.94-9.23 151.5-9.67 151.8-10.35L151.8-10.35Q152.04-10.25 152.26-10.21 152.48-10.16 152.72-10.16L152.72-10.16Q152.97-10.16 153.24-10.21 153.51-10.25 153.75-10.35L153.75-10.35Q154.14-9.81 154.36-9.16 154.58-8.5 154.92-7.91L154.92-7.91Q154.48-7.03 153.9-5.81 153.31-4.59 152.63-3.37 151.94-2.15 151.19-1.05 150.43 0.05 149.7 0.63L149.7 0.63Q149.55 0.78 149.06 0.98L149.06 0.98Q148.53 1.37 148.09 1.73 147.65 2.1 147.26 2.59L147.26 2.59Q145.84 3.03 144.55 3.76 143.25 4.49 141.98 5.18L141.98 5.18Q141.4 5.03 140.71 5.03L140.71 5.03Q140.13 5.03 139.54 5.1 138.95 5.18 138.27 5.18L138.27 5.18Q138.08 4.93 137.71 4.86 137.34 4.79 137.44 4.35L137.44 4.35Q135.78 4.25 134.76 3.44 133.73 2.64 133.02 1.46 132.31 0.29 131.87-1.07 131.44-2.44 130.95-3.71L130.95-3.71 130.95-3.86Q130.95-4.1 131.14-4.15 131.34-4.2 131.34-4.44L131.34-4.44Q131.34-4.54 131.29-4.59L131.29-4.59Q131.14-5.13 131.04-5.52 130.95-5.91 130.95-6.45L130.95-6.45Q130.95-7.23 131.04-7.98 131.14-8.74 131.14-9.52L131.14-9.52Q131.14-10.3 130.95-10.89L130.95-10.89Q131.14-11.13 131.26-11.55 131.39-11.96 131.44-12.4 131.48-12.84 131.51-13.28 131.53-13.72 131.63-14.06L131.63-14.06Q131.44-14.6 131.29-15.01 131.14-15.43 131.14-16.02L131.14-16.02 131.14-16.36Q131.63-17.19 131.97-18.07 132.31-18.95 132.7-19.87L132.7-19.87 132.7-20.02Q132.7-21.44 132.61-22.85 132.51-24.27 132.51-25.68L132.51-25.68 132.51-26.61Q132.51-27.1 132.56-27.54L132.56-27.54Q132.95-27.73 133.14-28.08 133.34-28.42 133.73-28.61L133.73-28.61 135.34-28.61 135.63-29.1Q135.78-29.35 135.83-29.64L135.83-29.64Q136.37-29.79 136.88-30.05 137.39-30.32 137.83-30.62L137.83-30.62Q138.52-31.01 139.08-31.32 139.64-31.64 140.2-31.86 140.76-32.08 141.4-32.23 142.03-32.37 142.86-32.47L142.86-32.47Q143.25-32.47 143.37-32.62 143.5-32.76 143.74-32.96L143.74-32.96Q144.33-32.86 144.91-32.79 145.5-32.71 146.08-32.71L146.08-32.71Q147.26-32.71 148.28-33.15L148.28-33.15Q149.75-33.15 151.19-33.2 152.63-33.25 154.09-33.25L154.09-33.25Q155.36-33.25 156.63-33.15 157.9-33.06 159.12-32.81L159.12-32.81Q159.56-32.96 160.1-32.96L160.1-32.96Q160.68-32.96 161.29-32.84 161.9-32.71 162.49-32.81L162.49-32.81Q162.54-32.28 162.76-31.91 162.98-31.54 162.98-31.05ZM223.08-8.5L223.08-8.5Q222.99-7.76 222.57-7.37 222.16-6.98 221.62-6.64L221.62-6.64Q221.37-6.69 221.15-6.71 220.93-6.74 220.69-6.74L220.69-6.74Q219.18-6.79 217.83-6.35 216.49-5.91 215.08-5.71L215.08-5.71Q214.59-5.62 214.17-5.64 213.76-5.66 213.32-5.57L213.32-5.57Q211.76-5.32 210-5.18 208.24-5.03 206.48-4.81 204.72-4.59 203.04-4.27 201.35-3.96 199.89-3.37L199.89-3.37Q199.74-3.47 199.6-3.59 199.45-3.71 199.26-3.71L199.26-3.71Q198.77-3.71 198.33-3.56 197.89-3.42 197.45-3.47L197.45-3.47Q196.96-3.17 196.4-3.05 195.84-2.93 195.28-2.86 194.71-2.78 194.18-2.64 193.64-2.49 193.15-2.1L193.15-2.1Q192.76-2.29 192.2-2.32 191.64-2.34 191.44-2.69L191.44-2.69Q190.32-2.15 189.07-2 187.83-1.86 186.56-1.9L186.56-1.9Q185.73-1.95 184.66-2.15 183.58-2.34 182.51-2.71 181.43-3.08 180.51-3.59 179.58-4.1 179.09-4.83L179.09-4.83Q178.75-5.32 178.6-5.91 178.45-6.49 177.92-6.79L177.92-6.79Q178.06-7.91 178.26-8.98 178.45-10.06 178.65-11.18L178.65-11.18Q179.63-12.01 180.51-12.94 181.38-13.87 182.17-14.89L182.17-14.89Q183.09-15.33 183.9-15.97 184.7-16.6 185.51-17.26 186.32-17.92 187.12-18.55 187.93-19.19 188.85-19.68L188.85-19.68Q189-20.02 189.27-20.24 189.54-20.46 189.83-20.68 190.12-20.9 190.37-21.17 190.61-21.44 190.71-21.83L190.71-21.83Q192.42-22.85 193.69-24.41 194.96-25.98 195.35-27.93L195.35-27.93Q194.52-28.61 193.47-28.83 192.42-29.05 191.3-29.15L191.3-29.15Q190.32-29.2 189.27-29.15 188.22-29.1 187.15-29.2L187.15-29.2Q186.07-28.86 184.92-28.76 183.78-28.66 182.65-28.59 181.53-28.52 180.43-28.3 179.33-28.08 178.31-27.49L178.31-27.49Q178.11-27.49 177.94-27.54 177.77-27.59 177.58-27.59L177.58-27.59Q176.01-27.64 174.65-26.98 173.28-26.32 171.96-25.68L171.96-25.68Q171.86-25.49 171.86-25.39L171.86-25.39Q171.86-25.1 171.98-24.83 172.11-24.56 172.11-24.27L172.11-24.27Q172.06-24.22 172.06-24.17 172.06-24.12 172.01-24.07L172.01-24.07Q171.96-23.83 171.89-23.63 171.81-23.44 171.72-23.19L171.72-23.19Q171.18-21.63 171.13-20.12L171.13-20.12Q171.08-18.85 171.13-17.63 171.18-16.41 171.13-15.14L171.13-15.14Q171.03-13.57 170.64-12.21L170.64-12.21Q170.89-11.04 171.08-9.74 171.28-8.45 171.57-7.18 171.86-5.91 172.28-4.71 172.69-3.52 173.38-2.44L173.38-2.44Q173.33-2.34 173.43-2.29 173.52-2.25 173.62-2.25L173.62-2.25 174.01-2.25Q174.26-2.25 174.21-2.05L174.21-2.05Q174.3-1.9 174.35-1.78 174.4-1.66 174.55-1.56L174.55-1.56Q174.65-1.42 174.55-1.17L174.55-1.17Q174.5-0.2 174.06 0.63 173.62 1.46 173.52 2.44L173.52 2.44Q172.94 2.59 172.45 2.59L172.45 2.59Q171.62 2.54 170.98 2.12 170.35 1.71 169.81 1.12 169.27 0.54 168.79-0.07 168.3-0.68 167.71-1.12L167.71-1.12Q167.37-2.49 167.05-4.15 166.74-5.81 166-6.98L166-6.98Q166.2-7.42 166.2-8.06L166.2-8.06Q166.25-9.03 166.03-9.99 165.81-10.94 165.91-11.91L165.91-11.91Q165.91-12.45 166.03-12.99 166.15-13.53 166.2-14.06L166.2-14.06Q166.25-14.89 166.03-15.67 165.81-16.46 165.86-17.29L165.86-17.29Q165.91-17.68 166.03-18.04 166.15-18.41 166.39-18.7L166.39-18.7Q166.15-19.29 166.25-19.82L166.25-19.82Q166.3-20.65 166.44-21.39 166.59-22.12 166.64-22.85L166.64-22.85Q166.64-23.24 166.59-23.61 166.54-23.97 166.44-24.32L166.44-24.32 166-24.46Q165.71-24.46 165.44-24.32 165.17-24.17 164.98-23.97 164.78-23.78 164.64-23.66 164.49-23.54 164.34-23.54L164.34-23.54Q164.25-23.54 164.12-23.56 164-23.58 163.9-23.58L163.9-23.58Q163.81-23.58 163.54-23.39 163.27-23.19 162.9-22.97 162.54-22.75 162.19-22.53 161.85-22.31 161.66-22.27L161.66-22.27Q161.12-22.36 160.8-22.63 160.49-22.9 160.22-23.17 159.95-23.44 159.66-23.66 159.36-23.88 158.92-23.83L158.92-23.83Q158.78-24.12 158.75-24.46 158.73-24.8 158.78-25.15L158.78-25.15 158.78-25.93Q159.12-26.56 159.68-26.98 160.24-27.39 160.88-27.69L160.88-27.69 162.15-28.27Q162.78-28.56 163.32-29L163.32-29 163.76-29Q164.64-28.96 165.3-29.35 165.95-29.74 166.54-30.25 167.13-30.76 167.74-31.3 168.35-31.84 169.08-32.13L169.08-32.13Q169.62-31.88 170.2-31.71 170.79-31.54 171.42-31.49L171.42-31.49Q172.06-31.49 172.74-31.69 173.43-31.88 173.82-32.42L173.82-32.42Q174.06-32.32 174.23-32.3 174.4-32.28 174.65-32.28L174.65-32.28Q175.38-32.23 176.11-32.5 176.84-32.76 177.53-33.15L177.53-33.15Q178.5-33.11 179.46-33.28 180.41-33.45 181.36-33.64 182.31-33.84 183.26-34.01 184.22-34.18 185.19-34.13L185.19-34.13Q186.8-34.08 188.37-34.42 189.93-34.77 191.54-34.67L191.54-34.67Q192.66-34.62 193.76-34.5 194.86-34.38 195.98-34.42L195.98-34.42Q196.62-34.13 197.13-33.91 197.64-33.69 198.43-33.79L198.43-33.79Q199.99-32.47 201.26-30.71L201.26-30.71 201.26-29.88Q201.21-28.76 200.87-27.69 200.52-26.61 200.06-25.56 199.6-24.51 199.06-23.51 198.52-22.51 198.03-21.53L198.03-21.53Q194.86-18.65 191.69-15.82 188.51-12.99 185.14-10.35L185.14-10.35Q185.05-9.86 184.88-9.47 184.7-9.08 184.66-8.64L184.66-8.64Q184.66-8.4 184.7-8.25L184.7-8.25Q185.05-8.15 185.31-7.89 185.58-7.62 185.49-7.18L185.49-7.18 185.93-7.18Q186.17-7.18 186.17-6.98L186.17-6.98 186.95-6.93Q188.81-6.84 190.66-7.03 192.52-7.23 194.4-7.47 196.28-7.71 198.13-7.93 199.99-8.15 201.84-8.2L201.84-8.2Q202.28-8.35 202.77-8.45 203.26-8.54 203.65-8.84L203.65-8.84 203.8-8.84Q204.14-8.84 204.31-8.64 204.48-8.45 204.82-8.4L204.82-8.4Q205.07-8.4 205.33-8.5 205.6-8.59 205.9-8.64L205.9-8.64Q206.58-8.84 207.34-8.89 208.09-8.94 208.83-9.03L208.83-9.03Q211.66-9.28 214.44-9.35 217.22-9.42 220.01-10.06L220.01-10.06Q220.25-9.72 220.69-9.59 221.13-9.47 221.62-9.35 222.11-9.23 222.52-9.08 222.94-8.94 223.08-8.5Z" opacity="1" transform="matrix(1,0,0,1,0,0)" fill="#000000" class="undefined-text-0" data-fill-palette-color="primary" id="text-0"></path></svg></g></svg></g></svg></g></svg></g><g transform="matrix(1,0,0,1,114.44853032284009,0)"><svg viewBox="0 0 168.60053935431975 151.38145840403598" height="151.38145840403598" width="168.60053935431975"><g><svg xmlns="http://www.w3.org/2000/svg" xmlns:xlink="http://www.w3.org/1999/xlink" version="1.1" x="8" y="0" viewBox="14.289246559143066 15.439488410949707 72.8424301147461 72.26051330566406" enable-background="new 0 0 100 100" xml:space="preserve" height="151.38145840403598" width="152.60053935431975" class="icon-icon-0" data-fill-palette-color="accent" id="icon-0"><g fill="#ee3e38" data-fill-palette-color="accent"><path fill="#000000" d="M85.5 18.6c-1.9-2.5-5.1-3.6-7.9-3-7.7 1.9-22.1 7.1-39.4 21.1-3.8-1.1-14-3.3-21.9 2.8-1.2 0.9-1.9 2.2-2 3.7-0.1 1.6 0.5 3.2 1.7 4.4l11.6 7.7c0 0 0 0 0 0 0.2 0.2 0.3 0.5 0.5 0.7l6.7 6.7c-0.8 1.4-0.7 3.1 0.4 4.3 0.7 0.7 1.6 1 2.5 1 0.6 0 1.3-0.2 1.8-0.6l6.9 6.9c0 0 0.1 0 0.1 0.1l7.4 11.1 0.4 0.5c1.1 1.1 2.6 1.7 4.1 1.7 0.1 0 0.2 0 0.3 0 1.5-0.1 2.8-0.8 3.7-1.9 7.5-9.4 3.9-21.4 3.7-21.9 0 0 0-0.1 0-0.1C79.9 46.8 85.1 32.6 86.9 25 87.5 22.8 86.9 20.5 85.5 18.6zM31.4 42.5c-1.2 1.1-2.4 2.2-3.6 3.3-0.2 0.2-0.5 0.5-0.7 0.8l-4.4-2.9C25.6 42.4 28.8 42.3 31.4 42.5zM58.5 79.5l-2.7-4c0.3-0.2 0.6-0.5 0.9-0.8 1.2-1.3 2.4-2.6 3.6-3.8C60.4 73.4 60.1 76.6 58.5 79.5zM51.9 69.6c-0.1 0-0.2-0.1-0.4-0.3l-6.7-6.7 5.9-5.9c1.4-1.4 1.4-3.6 0-4.9-1.4-1.4-3.6-1.4-4.9 0l-5.9 5.9L33.2 51c-0.1-0.1-0.2-0.3-0.3-0.4C53.5 31 70.8 24.5 79.2 22.4c0.1 0 0.4 0.1 0.6 0.4 0.2 0.3 0.3 0.5 0.3 0.5C78.1 31.8 71.6 49.1 51.9 69.6z" data-fill-palette-color="accent"></path><path fill="#000000" d="M28.4 63.8c-1.4-1.4-3.6-1.4-4.9 0-1.4 1.4-1.4 3.6 0 4.9L33.7 79c0.7 0.7 1.6 1 2.5 1s1.8-0.3 2.5-1c1.4-1.4 1.4-3.6 0-4.9L28.4 63.8z" data-fill-palette-color="accent"></path><path fill="#000000" d="M24 72.2c-1.4-1.4-3.6-1.4-4.9 0-1.4 1.4-1.4 3.6 0 4.9l6.2 6.2c0.7 0.7 1.6 1 2.5 1s1.8-0.3 2.5-1c1.4-1.4 1.4-3.6 0-4.9L24 72.2z" data-fill-palette-color="accent"></path></g></svg></g></svg></g><g><rect width="9.84313133916892" height="9.878246124848797" y="140.50321227918718" x="283.0490696771598" fill="#000000" data-fill-palette-color="secondary"></rect><rect width="9.84313133916892" height="9.878246124848797" y="140.50321227918718" x="104.60539898367117" fill="#000000" data-fill-palette-color="secondary"></rect></g></svg></g><defs></defs></svg><rect width="304.6712007000932" height="247.2" fill="none" stroke="none" visibility="hidden"></rect></g></svg></g></svg>